<svg xmlns="http://www.w3.org/2000/svg" viewBox="0 0 100 100" id="shipping-truck">
  <path fill="#a0c8ff" d="M2,14V78H14a8,8,0,0,1,16,0H66V14Z"></path>
  <circle cx="22" cy="78" r="8" fill="#60a4ff"></circle>
  <circle cx="82" cy="78" r="8" fill="#60a4ff"></circle>
  <path fill="#a0c8ff" d="M78,30H66V78h8a8,8,0,0,1,16,0h8V54H78Z"></path>
  <polygon fill="#dfedff" points="78 30 78 54 98 54 82 30 78 30"></polygon>
  <rect width="16" height="24" x="26" y="14" fill="#dfedff"></rect>
  <rect width="6" height="48" x="66" y="30" fill="#60a4ff"></rect>
  <path fill="#2f67f3" d="M66,80H30a2,2,0,0,1-2-2,6,6,0,0,0-12,0,2,2,0,0,1-2,2H2a2,2,0,0,1-2-2V14a2,2,0,0,1,2-2H66a2,2,0,0,1,2,2V78A2,2,0,0,1,66,80ZM31.8,76H64V16H4V76h8.2a10,10,0,0,1,19.6,0Z"></path>
  <path fill="#2f67f3" d="M98 80H90a2 2 0 01-2-2 6 6 0 00-12 0 2 2 0 01-2 2H66a2 2 0 01-2-2V30a2 2 0 012-2H82a2 2 0 011.67.89l16 24A2 2 0 01100 54V78A2 2 0 0198 80zm-6.2-4H96V54.61L80.93 32H68V76h4.2a10 10 0 0119.6 0zM22 88A10 10 0 1132 78 10 10 0 0122 88zm0-16a6 6 0 106 6A6 6 0 0022 72z"></path>
  <path fill="#2f67f3" d="M82 88A10 10 0 1192 78 10 10 0 0182 88zm0-16a6 6 0 106 6A6 6 0 0082 72zM98 56H78a2 2 0 01-2-2V42a2 2 0 014 0V52H98a2 2 0 010 4zM42 40H26a2 2 0 01-2-2V14a2 2 0 012-2H42a2 2 0 012 2V38A2 2 0 0142 40zM28 36H40V16H28z"></path>
</svg>
